<svg width="17" height="19" viewBox="0 0 17 19" fill="none" xmlns="http://www.w3.org/2000/svg">
<path fill-rule="evenodd" clip-rule="evenodd" d="M5.16667 0.25C5.58088 0.25 5.91667 0.585786 5.91667 1V1.91667H11.0833V1C11.0833 0.585786 11.4191 0.25 11.8333 0.25C12.2475 0.25 12.5833 0.585786 12.5833 1V1.91753C13.0135 1.91969 13.3844 1.92719 13.7031 1.95322C14.1663 1.99107 14.5847 2.0718 14.9755 2.2709C15.587 2.58248 16.0842 3.07967 16.3958 3.6912C16.5949 4.08194 16.6756 4.50034 16.7134 4.9636C16.75 5.41117 16.75 5.96189 16.75 6.63528V13.6981C16.75 14.3714 16.75 14.9222 16.7134 15.3697C16.6756 15.833 16.5949 16.2514 16.3958 16.6421C16.0842 17.2537 15.587 17.7509 14.9755 18.0624C14.5847 18.2615 14.1663 18.3423 13.7031 18.3801C13.2555 18.4167 12.7048 18.4167 12.0314 18.4167H4.96856C4.29519 18.4167 3.74449 18.4167 3.29693 18.3801C2.83367 18.3423 2.41527 18.2615 2.02453 18.0624C1.413 17.7509 0.915818 17.2537 0.604229 16.6421C0.405137 16.2514 0.324402 15.833 0.286552 15.3697C0.249984 14.9222 0.249992 14.3715 0.25 13.6981V6.63525C0.249992 5.96187 0.249984 5.41116 0.286552 4.9636C0.324402 4.50034 0.405137 4.08194 0.604229 3.6912C0.915818 3.07967 1.413 2.58248 2.02453 2.2709C2.41527 2.0718 2.83367 1.99107 3.29693 1.95322C3.61555 1.92719 3.98645 1.91969 4.41667 1.91753V1C4.41667 0.585786 4.75245 0.25 5.16667 0.25ZM4.41667 3.41763C4.00426 3.41975 3.6847 3.42653 3.41908 3.44824C3.04858 3.47851 2.84956 3.53401 2.70552 3.60741C2.37623 3.77518 2.10852 4.0429 1.94074 4.37218C1.86735 4.51622 1.81184 4.71525 1.78157 5.08575C1.75058 5.465 1.75 5.95423 1.75 6.66667V6.91667H15.25V6.66667C15.25 5.95423 15.2494 5.465 15.2184 5.08575C15.1882 4.71525 15.1327 4.51622 15.0593 4.37218C14.8915 4.0429 14.6238 3.77518 14.2945 3.60741C14.1504 3.53401 13.9514 3.47851 13.5809 3.44824C13.3153 3.42653 12.9957 3.41975 12.5833 3.41763V4.33333C12.5833 4.74755 12.2475 5.08333 11.8333 5.08333C11.4191 5.08333 11.0833 4.74755 11.0833 4.33333V3.41667H5.91667V4.33333C5.91667 4.74755 5.58088 5.08333 5.16667 5.08333C4.75245 5.08333 4.41667 4.74755 4.41667 4.33333V3.41763ZM15.25 8.41667H1.75V13.6667C1.75 14.3791 1.75058 14.8683 1.78157 15.2476C1.81184 15.6181 1.86735 15.8171 1.94074 15.9612C2.10852 16.2904 2.37623 16.5582 2.70552 16.7259C2.84956 16.7993 3.04858 16.8548 3.41908 16.8851C3.79833 16.9161 4.28756 16.9167 5 16.9167H12C12.7124 16.9167 13.2017 16.9161 13.5809 16.8851C13.9514 16.8548 14.1504 16.7993 14.2945 16.7259C14.6238 16.5582 14.8915 16.2904 15.0593 15.9612C15.1327 15.8171 15.1882 15.6181 15.2184 15.2476C15.2494 14.8683 15.25 14.3791 15.25 13.6667V8.41667Z" fill="#FAFAFA"/>
</svg>
