<svg width="16" height="16" viewBox="0 0 16 16" fill="none" xmlns="http://www.w3.org/2000/svg">
<path fill-rule="evenodd" clip-rule="evenodd" d="M4.56903 0.25L10.75 0.250001C11.1642 0.250001 11.5 0.585787 11.5 1C11.5 1.41421 11.1642 1.75 10.75 1.75H4.6C3.95757 1.75 3.52085 1.75058 3.18328 1.77816C2.85447 1.80503 2.68631 1.85372 2.56902 1.91349C2.28677 2.0573 2.0573 2.28677 1.91349 2.56901C1.85372 2.68631 1.80503 2.85447 1.77816 3.18328C1.75058 3.52085 1.75 3.95757 1.75 4.6V10.9C1.75 11.5424 1.75058 11.9792 1.77816 12.3167C1.80503 12.6455 1.85372 12.8137 1.91349 12.931C2.0573 13.2132 2.28677 13.4427 2.56902 13.5865C2.68631 13.6463 2.85447 13.695 3.18328 13.7218C3.52085 13.7494 3.95757 13.75 4.6 13.75H10.9C11.5424 13.75 11.9792 13.7494 12.3167 13.7218C12.6455 13.695 12.8137 13.6463 12.931 13.5865C13.2132 13.4427 13.4427 13.2132 13.5865 12.931C13.6463 12.8137 13.695 12.6455 13.7218 12.3167C13.7494 11.9792 13.75 11.5424 13.75 10.9V7.75C13.75 7.33579 14.0858 7 14.5 7C14.9142 7 15.25 7.33579 15.25 7.75V10.931C15.25 11.5347 15.25 12.033 15.2169 12.4389C15.1824 12.8604 15.1085 13.248 14.923 13.612C14.6354 14.1765 14.1765 14.6354 13.612 14.923C13.248 15.1085 12.8604 15.1824 12.4389 15.2169C12.033 15.25 11.5347 15.25 10.931 15.25H4.56901C3.96529 15.25 3.46702 15.25 3.06113 15.2169C2.63956 15.1824 2.25203 15.1085 1.88803 14.923C1.32354 14.6354 0.864601 14.1765 0.576981 13.612C0.391513 13.248 0.31759 12.8604 0.283146 12.4389C0.249983 12.033 0.249991 11.5347 0.25 10.931V4.56903C0.249991 3.9653 0.249983 3.46703 0.283146 3.06113C0.31759 2.63956 0.391513 2.25203 0.576981 1.88803C0.864601 1.32354 1.32354 0.864601 1.88803 0.576981C2.25203 0.391513 2.63956 0.31759 3.06113 0.283146C3.46703 0.249983 3.9653 0.249991 4.56903 0.25ZM14.7197 1.21967C15.0126 0.926777 15.4874 0.926777 15.7803 1.21967C16.0732 1.51256 16.0732 1.98744 15.7803 2.28033L8.28033 9.78033C7.98744 10.0732 7.51256 10.0732 7.21967 9.78033L4.96967 7.53033C4.67678 7.23744 4.67678 6.76256 4.96967 6.46967C5.26256 6.17678 5.73744 6.17678 6.03033 6.46967L7.75 8.18934L14.7197 1.21967Z" fill="#505B62"/>
</svg>
