<svg width="19" height="19" viewBox="0 0 19 19" fill="none" xmlns="http://www.w3.org/2000/svg">
<path fill-rule="evenodd" clip-rule="evenodd" d="M8.08333 0.25C8.49755 0.25 8.83333 0.585786 8.83333 1V2.33333C8.83333 2.74755 8.49755 3.08333 8.08333 3.08333C7.66912 3.08333 7.33333 2.74755 7.33333 2.33333V1C7.33333 0.585786 7.66912 0.25 8.08333 0.25ZM13.7646 2.403C14.0575 2.6959 14.0575 3.17077 13.7646 3.46366L12.8218 4.40647C12.5289 4.69937 12.0541 4.69937 11.7612 4.40647C11.4683 4.11358 11.4683 3.63871 11.7612 3.34581L12.704 2.403C12.9969 2.11011 13.4718 2.11011 13.7646 2.403ZM2.40286 2.403C2.69575 2.11011 3.17062 2.11011 3.46352 2.403L4.40633 3.34581C4.69922 3.63871 4.69922 4.11358 4.40633 4.40647C4.11343 4.69937 3.63856 4.69937 3.34567 4.40647L2.40286 3.46366C2.10996 3.17077 2.10996 2.6959 2.40286 2.403ZM8.0834 5.50006C6.65666 5.50006 5.50006 6.65666 5.50006 8.0834C5.50006 8.49761 5.16427 8.8334 4.75006 8.8334C4.33585 8.8334 4.00006 8.49761 4.00006 8.0834C4.00006 5.82823 5.82823 4.00006 8.0834 4.00006C9.62178 4.00006 10.9604 4.85109 11.6559 6.10448C11.8568 6.46666 11.7262 6.9232 11.364 7.12418C11.0018 7.32516 10.5452 7.19448 10.3443 6.83229C9.90249 6.03616 9.05503 5.50006 8.0834 5.50006ZM0.25 8.08333C0.25 7.66912 0.585786 7.33333 1 7.33333H2.33333C2.74755 7.33333 3.08333 7.66912 3.08333 8.08333C3.08333 8.49755 2.74755 8.83333 2.33333 8.83333H1C0.585786 8.83333 0.25 8.49755 0.25 8.08333ZM13.0833 8.08333C13.0833 7.66912 13.4191 7.33333 13.8333 7.33333H15.1667C15.5809 7.33333 15.9167 7.66912 15.9167 8.08333C15.9167 8.49755 15.5809 8.83333 15.1667 8.83333H13.8333C13.4191 8.83333 13.0833 8.49755 13.0833 8.08333ZM9.33333 9.66667C7.87483 9.66667 6.62797 10.5809 6.13812 11.8701C5.99367 12.2503 5.57254 12.4461 5.18877 12.3114C4.92202 12.2179 4.63446 12.1667 4.33333 12.1667C2.9066 12.1667 1.75 13.3233 1.75 14.75C1.75 16.1767 2.9066 17.3333 4.33333 17.3333H14.3333C15.7601 17.3333 16.9167 16.1767 16.9167 14.75C16.9167 13.3233 15.7601 12.1667 14.3333 12.1667C14.0322 12.1667 13.7447 12.2179 13.4779 12.3115C13.0941 12.4461 12.673 12.2503 12.5286 11.8701C12.0387 10.5809 10.7918 9.66667 9.33333 9.66667ZM5.01885 10.7241C5.85353 9.2008 7.47193 8.16667 9.33333 8.16667C11.1947 8.16667 12.8131 9.2008 13.6478 10.7241C13.871 10.6863 14.1001 10.6667 14.3333 10.6667C16.5885 10.6667 18.4167 12.4948 18.4167 14.75C18.4167 17.0052 16.5885 18.8333 14.3333 18.8333H4.33333C2.07817 18.8333 0.25 17.0052 0.25 14.75C0.25 12.4948 2.07817 10.6667 4.33333 10.6667C4.56659 10.6667 4.79566 10.6863 5.01885 10.7241Z" fill="#FAFAFA"/>
</svg>
