<svg width="14" height="14" viewBox="0 0 14 14" fill="none" xmlns="http://www.w3.org/2000/svg">
<path fill-rule="evenodd" clip-rule="evenodd" d="M4.25 1C4.25 0.585786 4.58579 0.25 5 0.25H9C9.41421 0.25 9.75 0.585786 9.75 1C9.75 1.41421 9.41421 1.75 9 1.75H5C4.58579 1.75 4.25 1.41421 4.25 1ZM2.32752 2.25H1C0.585786 2.25 0.25 2.58579 0.25 3C0.25 3.41421 0.585786 3.75 1 3.75H1.63167L2.05446 10.0919C2.08787 10.5932 2.11584 11.0128 2.16613 11.3554C2.21873 11.7136 2.30307 12.0478 2.48165 12.3613C2.75675 12.8441 3.1717 13.2323 3.67181 13.4747C3.99646 13.632 4.33553 13.694 4.69647 13.7226C5.0416 13.75 5.46216 13.75 5.96451 13.75H8.03549C8.53784 13.75 8.9584 13.75 9.30353 13.7226C9.66447 13.694 10.0035 13.632 10.3282 13.4747C10.8283 13.2323 11.2433 12.8441 11.5183 12.3613C11.6969 12.0478 11.7813 11.7136 11.8339 11.3554C11.8842 11.0128 11.9121 10.5932 11.9455 10.0919L12.3683 3.75H13C13.4142 3.75 13.75 3.41421 13.75 3C13.75 2.58579 13.4142 2.25 13 2.25H11.6725C11.6681 2.24996 11.6637 2.24996 11.6594 2.25H2.34064C2.33627 2.24996 2.3319 2.24996 2.32752 2.25ZM10.865 3.75H3.135L3.5492 9.96297C3.58506 10.501 3.6096 10.8608 3.65022 11.1375C3.68951 11.405 3.73632 11.5333 3.78499 11.6188C3.91004 11.8382 4.09865 12.0147 4.32597 12.1249C4.41445 12.1677 4.54557 12.2059 4.81517 12.2273C5.09389 12.2495 5.45458 12.25 5.99377 12.25H8.00623C8.54543 12.25 8.90612 12.2495 9.18483 12.2273C9.45443 12.2059 9.58555 12.1677 9.67403 12.1249C9.90135 12.0147 10.09 11.8382 10.215 11.6188C10.2637 11.5333 10.3105 11.405 10.3498 11.1375C10.3904 10.8608 10.4149 10.501 10.4508 9.96297L10.865 3.75ZM5.66667 5.25C6.08088 5.25 6.41667 5.58579 6.41667 6V9.33333C6.41667 9.74755 6.08088 10.0833 5.66667 10.0833C5.25245 10.0833 4.91667 9.74755 4.91667 9.33333V6C4.91667 5.58579 5.25245 5.25 5.66667 5.25ZM8.33333 5.25C8.74755 5.25 9.08333 5.58579 9.08333 6V9.33333C9.08333 9.74755 8.74755 10.0833 8.33333 10.0833C7.91912 10.0833 7.58333 9.74755 7.58333 9.33333V6C7.58333 5.58579 7.91912 5.25 8.33333 5.25Z" fill="#0F90E6"/>
</svg>
