<svg width="22" height="20" viewBox="0 0 22 20" fill="none" xmlns="http://www.w3.org/2000/svg">
<path fill-rule="evenodd" clip-rule="evenodd" d="M8.64414 0.25H17.1391C17.7938 0.249991 18.3302 0.249984 18.7663 0.285437C19.218 0.322153 19.6277 0.400568 20.0108 0.594806C20.6094 0.898199 21.0967 1.38268 21.4023 1.97947C21.5982 2.36199 21.6773 2.77095 21.7142 3.22118C21.7499 3.65557 21.7499 4.18963 21.7499 4.8406V11.6795C21.7499 12.3305 21.7499 12.8645 21.7142 13.2989C21.6773 13.7491 21.5982 14.1581 21.4023 14.5406C21.0967 15.1374 20.6094 15.6219 20.0108 15.9253C19.972 15.945 19.9328 15.9635 19.8934 15.9809C19.6929 16.4667 19.2653 16.8494 18.7127 16.9694L6.25324 19.6741C4.46593 20.0622 2.70349 18.9266 2.31602 17.1392L0.325664 7.9574C-0.0617642 6.17014 1.07187 4.40621 2.85902 4.01824L4.0418 3.76147C4.047 3.5663 4.05541 3.38652 4.06899 3.22118C4.10597 2.77095 4.185 2.36199 4.38091 1.97947C4.68656 1.38268 5.17388 0.898199 5.77239 0.594806C6.15557 0.400568 6.5652 0.322153 7.0169 0.285437C7.45305 0.249984 7.98946 0.249991 8.64414 0.25ZM4.03333 5.29825L3.17724 5.4841C2.2004 5.69616 1.57946 6.6609 1.79162 7.63963L3.78198 16.8214C3.9941 17.8 4.95836 18.4203 5.93502 18.2083L14.8632 16.2701H8.64416C7.98947 16.2701 7.45305 16.2701 7.0169 16.2347C6.5652 16.1979 6.15557 16.1195 5.77239 15.9253C5.17388 15.6219 4.68656 15.1374 4.38091 14.5406C4.185 14.1581 4.10597 13.7491 4.06899 13.2989C4.03332 12.8645 4.03332 12.3305 4.03333 11.6795L4.03333 5.29825ZM19.4427 14.5263C19.7091 14.3652 19.9255 14.1336 20.0672 13.8569C20.1364 13.7217 20.19 13.533 20.2193 13.1761C20.2493 12.8104 20.2499 12.3382 20.2499 11.6481V10.9919L18.145 8.89771C17.9757 8.72927 17.8802 8.63513 17.8056 8.57214C17.7853 8.55499 17.7711 8.54416 17.7622 8.53775C17.7585 8.53743 17.7547 8.53743 17.751 8.53775C17.7421 8.54416 17.7279 8.55499 17.7076 8.57213C17.633 8.63513 17.5375 8.72927 17.3682 8.89771L15.5767 10.6801L19.4427 14.5263ZM14.5133 9.62212L16.3276 7.81706C16.4731 7.67226 16.6125 7.53359 16.7397 7.42617C16.8787 7.30875 17.0515 7.1857 17.2753 7.11335C17.5882 7.01223 17.925 7.01223 18.2378 7.11335C18.4617 7.1857 18.6345 7.30875 18.7735 7.42617C18.9007 7.53359 19.04 7.67224 19.1855 7.81703L20.2499 8.87596V4.87203C20.2499 4.18192 20.2493 3.70968 20.2193 3.34395C20.19 2.98709 20.1364 2.79838 20.0672 2.66324C19.9065 2.34931 19.6495 2.09336 19.3326 1.93273C19.1955 1.8632 19.0044 1.80973 18.6448 1.78051C18.2766 1.75058 17.8014 1.75 17.1079 1.75H8.67531C7.98184 1.75 7.50661 1.75058 7.13842 1.78051C6.77888 1.80973 6.58776 1.8632 6.4506 1.93273C6.13371 2.09336 5.87678 2.34931 5.716 2.66324C5.64679 2.79838 5.59326 2.98709 5.56396 3.34395C5.53392 3.70968 5.53333 4.18192 5.53333 4.87203V11.6481C5.53333 12.3382 5.53392 12.8104 5.56396 13.1761C5.59326 13.533 5.64679 13.7217 5.716 13.8569C5.85773 14.1336 6.07415 14.3652 6.34051 14.5263L11.4627 9.43037C11.6082 9.28558 11.7475 9.14693 11.8747 9.03951C12.0137 8.92209 12.1865 8.79905 12.4104 8.72669C12.7232 8.62557 13.06 8.62557 13.3729 8.72669C13.5967 8.79905 13.7695 8.92209 13.9085 9.03951C14.0357 9.14693 14.175 9.28559 14.3205 9.43037L14.5133 9.62212ZM8.22272 14.7696C8.36257 14.7701 8.51296 14.7701 8.67531 14.7701H17.1079C17.2703 14.7701 17.4207 14.7701 17.5605 14.7696L13.28 10.5111C13.1107 10.3426 13.0152 10.2485 12.9407 10.1855C12.9204 10.1683 12.9061 10.1575 12.8972 10.1511C12.8935 10.1508 12.8898 10.1508 12.886 10.1511C12.8771 10.1575 12.8629 10.1683 12.8426 10.1855C12.768 10.2485 12.6726 10.3426 12.5032 10.5111L8.22272 14.7696ZM9.6483 4.97669C9.16326 4.97669 8.77665 5.36685 8.77665 5.84003C8.77665 6.31321 9.16326 6.70338 9.6483 6.70338C10.1333 6.70338 10.52 6.31321 10.52 5.84003C10.52 5.36685 10.1333 4.97669 9.6483 4.97669ZM7.27665 5.84003C7.27665 4.53116 8.34211 3.47669 9.6483 3.47669C10.9545 3.47669 12.02 4.53116 12.02 5.84003C12.02 7.1489 10.9545 8.20338 9.6483 8.20338C8.34211 8.20338 7.27665 7.1489 7.27665 5.84003Z" fill="white"/>
</svg>
