<svg width="14" height="14" viewBox="0 0 14 14" fill="none" xmlns="http://www.w3.org/2000/svg">
<path d="M9.67506 14H4.32494C1.94056 14 0 12.0594 0 9.67506V4.32494C0 1.94056 1.94056 0 4.32494 0H9.67506C12.0594 0 14 1.94056 14 4.32494V9.67506C14 12.0606 12.0606 14 9.67506 14ZM4.3261 1.56146C2.80162 1.56146 1.56146 2.80162 1.56146 4.3261V9.67621C1.56146 11.2007 2.80162 12.4408 4.3261 12.4408H9.67622C11.2007 12.4408 12.4409 11.2007 12.4409 9.67621V4.3261C12.4409 2.80162 11.2007 1.56146 9.67622 1.56146H4.3261Z" fill="#FAFAFA"/>
<path d="M7.00067 10.5791C5.02774 10.5791 3.42236 8.97374 3.42236 7.00082C3.42236 5.0279 5.02774 3.42252 7.00067 3.42252C8.97359 3.42252 10.579 5.0279 10.579 7.00082C10.579 8.97374 8.97359 10.5791 7.00067 10.5791ZM7.00067 4.82794C5.80212 4.82794 4.8278 5.80343 4.8278 7.00197C4.8278 8.20052 5.80328 9.176 7.00067 9.176C8.19921 9.176 9.17354 8.20052 9.17354 7.00197C9.17354 5.80343 8.19921 4.82794 7.00067 4.82794Z" fill="#FAFAFA"/>
<path d="M10.7593 3.81845C11.0931 3.81845 11.3637 3.54782 11.3637 3.21398C11.3637 2.88013 11.0931 2.6095 10.7593 2.6095C10.4254 2.6095 10.1548 2.88013 10.1548 3.21398C10.1548 3.54782 10.4254 3.81845 10.7593 3.81845Z" fill="#FAFAFA"/>
</svg>
