<svg width="14" height="14" viewBox="0 0 14 14" fill="none" xmlns="http://www.w3.org/2000/svg">
<path d="M3.38934 4.63705H0V13.9998H3.38934V4.63705Z" fill="#FAFAFA"/>
<path d="M5.13892 4.63733H7.75431V5.93774C7.75431 5.93774 8.15656 4.62524 10.5751 4.62524C12.5718 4.62524 13.9999 5.39389 13.9999 7.50525C13.9999 8.67273 13.9999 14.0001 13.9999 14.0001H11.206C11.206 14.0001 11.2219 8.53857 11.2366 8.36937C11.2525 8.20138 11.0813 6.82362 9.65804 6.82362C8.23481 6.82362 7.78487 7.83277 7.78487 8.59779C7.78487 9.36281 7.78487 13.9989 7.78487 13.9989H5.1377V4.63733H5.13892Z" fill="#FAFAFA"/>
<path d="M1.69469 3.35014C2.63063 3.35014 3.38934 2.60018 3.38934 1.67507C3.38934 0.749952 2.63063 0 1.69469 0C0.758744 0 0 0.749952 0 1.67507C0 2.60018 0.758744 3.35014 1.69469 3.35014Z" fill="#FAFAFA"/>
</svg>
