<svg width="19" height="16" viewBox="0 0 19 16" fill="none" xmlns="http://www.w3.org/2000/svg">
<path fill-rule="evenodd" clip-rule="evenodd" d="M4.96852 0.25H13.698C14.3714 0.249992 14.9221 0.249984 15.3697 0.286552C15.8329 0.324402 16.2513 0.405137 16.6421 0.604229C17.2536 0.915818 17.7508 1.413 18.0624 2.02453C18.2559 2.40437 18.3376 2.81035 18.3768 3.25826C18.4205 3.38644 18.4278 3.52232 18.4012 3.65143C18.4166 4.02688 18.4166 4.46317 18.4166 4.96856V10.3648C18.4166 11.0381 18.4166 11.5888 18.3801 12.0364C18.3422 12.4997 18.2615 12.9181 18.0624 13.3088C17.7508 13.9203 17.2536 14.4175 16.6421 14.7291C16.2513 14.9282 15.8329 15.0089 15.3697 15.0468C14.9221 15.0834 14.3714 15.0833 13.698 15.0833H4.96851C4.29514 15.0833 3.74443 15.0834 3.29687 15.0468C2.83361 15.0089 2.41521 14.9282 2.02447 14.7291C1.41295 14.4175 0.91576 13.9203 0.604171 13.3088C0.405079 12.9181 0.324344 12.4997 0.286494 12.0364C0.249926 11.5888 0.249933 11.0381 0.249942 10.3648V4.96858C0.249936 4.46318 0.24993 4.02689 0.265388 3.65144C0.238796 3.52233 0.246067 3.38644 0.289763 3.25826C0.328941 2.81035 0.410633 2.40437 0.604171 2.02453C0.91576 1.413 1.41295 0.915818 2.02447 0.604229C2.41521 0.405137 2.83361 0.324402 3.29687 0.286552C3.74444 0.249984 4.29515 0.249992 4.96852 0.25ZM1.74994 4.94049C1.74994 4.96015 1.74994 4.97999 1.74994 5V10.3333C1.74994 10.7368 1.75013 11.0687 1.75592 11.3496L5.75091 7.74117L1.74994 4.94049ZM7.36904 7.04287L1.81163 3.15269C1.84327 2.94448 1.88723 2.81042 1.94068 2.70552C2.10846 2.37623 2.37618 2.10852 2.70546 1.94074C2.8495 1.86735 3.04852 1.81184 3.41902 1.78157C3.79828 1.75058 4.2875 1.75 4.99994 1.75H13.6666C14.3791 1.75 14.8683 1.75058 15.2475 1.78157C15.618 1.81184 15.8171 1.86735 15.9611 1.94074C16.2904 2.10852 16.5581 2.37623 16.7259 2.70552C16.7793 2.81042 16.8233 2.94448 16.8549 3.15269L11.2975 7.04285C11.2889 7.04866 11.2803 7.05466 11.2718 7.06087L10.4324 7.64845C9.83061 8.06971 9.68724 8.15539 9.55499 8.18836C9.40941 8.22465 9.25714 8.22465 9.11156 8.18836C8.97932 8.15539 8.83594 8.06971 8.23414 7.64845L7.39471 7.06085C7.38625 7.05466 7.37769 7.04867 7.36904 7.04287ZM7.01167 8.6237L2.18267 12.9854C2.32855 13.1522 2.50567 13.2908 2.70546 13.3926C2.8495 13.466 3.04852 13.5215 3.41902 13.5518C3.79828 13.5828 4.2875 13.5833 4.99994 13.5833H13.6666C14.3791 13.5833 14.8683 13.5828 15.2475 13.5518C15.618 13.5215 15.8171 13.466 15.9611 13.3926C16.1609 13.2908 16.338 13.1522 16.4839 12.9854L11.6549 8.6237L11.2926 8.87729C11.2617 8.89894 11.2311 8.92039 11.2009 8.94162C10.7418 9.26379 10.356 9.5346 9.91779 9.64382C9.53399 9.73949 9.13257 9.73949 8.74876 9.64382C8.31057 9.5346 7.92473 9.26379 7.46569 8.94163C7.43544 8.9204 7.40487 8.89894 7.37395 8.87729L7.01167 8.6237ZM12.9156 7.74117L16.9106 11.3496C16.9164 11.0687 16.9166 10.7368 16.9166 10.3333V5C16.9166 4.97999 16.9166 4.96015 16.9166 4.94049L12.9156 7.74117Z" fill="#40484B"/>
</svg>
