<svg width="16" height="19" viewBox="0 0 16 19" fill="none" xmlns="http://www.w3.org/2000/svg">
<path fill-rule="evenodd" clip-rule="evenodd" d="M7.66667 1.75C4.39898 1.75 1.75 4.39898 1.75 7.66667C1.75 9.26984 2.47321 10.776 3.67754 12.3398C4.69386 13.6594 5.9947 14.9497 7.38593 16.3296C7.47912 16.4221 7.57272 16.5149 7.66667 16.6082C7.76061 16.5149 7.85421 16.4221 7.9474 16.3296C9.33863 14.9497 10.6395 13.6594 11.6558 12.3398C12.8601 10.776 13.5833 9.26984 13.5833 7.66667C13.5833 4.39898 10.9344 1.75 7.66667 1.75ZM0.25 7.66667C0.25 3.57055 3.57055 0.25 7.66667 0.25C11.7628 0.25 15.0833 3.57055 15.0833 7.66667C15.0833 9.74539 14.1399 11.5726 12.8442 13.255C11.761 14.6615 10.3746 16.036 8.98471 17.4138C8.72158 17.6747 8.45833 17.9357 8.197 18.197C8.05634 18.3377 7.86558 18.4167 7.66667 18.4167C7.46775 18.4167 7.27699 18.3377 7.13634 18.197C6.875 17.9357 6.61175 17.6747 6.34862 17.4138C4.95876 16.036 3.57234 14.6615 2.48912 13.255C1.19346 11.5726 0.25 9.74539 0.25 7.66667ZM7.66667 5.91667C6.70017 5.91667 5.91667 6.70017 5.91667 7.66667C5.91667 8.63317 6.70017 9.41667 7.66667 9.41667C8.63316 9.41667 9.41667 8.63317 9.41667 7.66667C9.41667 6.70017 8.63316 5.91667 7.66667 5.91667ZM4.41667 7.66667C4.41667 5.87174 5.87174 4.41667 7.66667 4.41667C9.46159 4.41667 10.9167 5.87174 10.9167 7.66667C10.9167 9.46159 9.46159 10.9167 7.66667 10.9167C5.87174 10.9167 4.41667 9.46159 4.41667 7.66667Z" fill="#40484B"/>
</svg>
