<svg width="28" height="27" viewBox="0 0 28 27" fill="none" xmlns="http://www.w3.org/2000/svg">
<path fill-rule="evenodd" clip-rule="evenodd" d="M7.45752 2.94981e-07H16.7925C17.8065 -1.03146e-05 18.6282 -1.87792e-05 19.2944 0.0544123C19.9816 0.110556 20.5909 0.229556 21.1565 0.51772C22.0502 0.973118 22.7769 1.69978 23.2323 2.59355C23.5205 3.1591 23.6395 3.76841 23.6956 4.45558C23.75 5.12178 23.75 5.94346 23.75 6.95748V11.2617C23.9184 11.2672 24.0762 11.2754 24.2234 11.2874C24.7022 11.3265 25.1571 11.4114 25.589 11.6315C26.2476 11.967 26.783 12.5025 27.1185 13.161C27.3386 13.5929 27.4235 14.0479 27.4626 14.5266C27.5001 14.9844 27.5 15.544 27.5 16.2098V19.6762C27.5 20.2302 27.5 20.6959 27.4739 21.0788C27.4467 21.4784 27.3876 21.8604 27.2336 22.2323C26.8784 23.0898 26.197 23.7712 25.3394 24.1264C24.9675 24.2805 24.5855 24.3395 24.186 24.3668C24.051 24.376 23.9058 24.3819 23.75 24.3858V26C23.75 26.3723 23.5432 26.7138 23.2133 26.8862C22.8833 27.0587 22.4849 27.0336 22.1792 26.8211L19.4587 24.9297C19.047 24.6434 18.9409 24.5743 18.8352 24.5265C18.7244 24.4763 18.6079 24.4397 18.4882 24.4177C18.3741 24.3967 18.2476 24.3929 17.7462 24.3929H15.4598C14.794 24.3929 14.2345 24.3929 13.7766 24.3555C13.2979 24.3164 12.8429 24.2314 12.4111 24.0114C11.7525 23.6758 11.2171 23.1404 10.8815 22.4818C10.6615 22.05 10.5765 21.595 10.5374 21.1163C10.5048 20.7175 10.5006 20.2416 10.5001 19.6855L8.33916 21.8735C8.0956 22.1201 7.86786 22.3507 7.67073 22.5179C7.49192 22.6696 7.15748 22.9345 6.70401 22.9722C6.1842 23.0154 5.67526 22.8064 5.33578 22.4104C5.03961 22.065 4.98782 21.6414 4.96717 21.4079C4.9444 21.1505 4.94443 20.8264 4.94446 20.4798L4.94447 18.4895C4.94447 18.4382 4.92885 18.3933 4.87718 18.3423C4.81734 18.2833 4.70918 18.2215 4.56159 18.1998C2.48512 17.8957 0.854335 16.2649 0.550175 14.1884C0.499814 13.8446 0.499895 13.4535 0.500011 12.8893C0.500017 12.8618 0.500022 12.8339 0.500022 12.8056L0.500022 6.9575C0.500011 5.94348 0.500003 5.12178 0.554434 4.45558C0.610577 3.76841 0.729578 3.1591 1.01774 2.59355C1.47314 1.69978 2.1998 0.973118 3.09357 0.51772C3.65912 0.229556 4.26844 0.110556 4.9556 0.0544123C5.6218 -1.87792e-05 6.4435 -1.03146e-05 7.45752 2.94981e-07ZM12.5 17.2494C12.5 17.2498 12.5 17.2503 12.5 17.2507V19.3929C12.5 20.1094 12.5008 20.5867 12.5308 20.9534C12.5598 21.3085 12.6111 21.4709 12.6635 21.5738C12.8073 21.8561 13.0368 22.0856 13.319 22.2294C13.422 22.2818 13.5844 22.3331 13.9395 22.3621C14.3062 22.3921 14.7835 22.3929 15.5 22.3929H17.7462C17.7701 22.3929 17.7937 22.3928 17.817 22.3928C18.2139 22.3926 18.5341 22.3925 18.8507 22.4508C19.1299 22.5023 19.4018 22.5875 19.6603 22.7046C19.9536 22.8374 20.2164 23.0203 20.5422 23.2471C20.5614 23.2604 20.5807 23.2739 20.6003 23.2875L21.75 24.0868V23.3929C21.75 22.8406 22.1977 22.3929 22.75 22.3929C23.3461 22.3929 23.7431 22.3923 24.0498 22.3714C24.3476 22.3511 24.4865 22.3149 24.574 22.2787C24.9416 22.1264 25.2336 21.8344 25.3858 21.4669C25.4221 21.3793 25.4582 21.2404 25.4786 20.9427C25.4995 20.636 25.5 20.239 25.5 19.6429V16.25C25.5 15.5334 25.4992 15.0562 25.4693 14.6894C25.4403 14.3344 25.389 14.1719 25.3365 14.069C25.1927 13.7868 24.9633 13.5573 24.681 13.4135C24.5781 13.361 24.4156 13.3097 24.0606 13.2807C23.6939 13.2508 23.2166 13.25 22.5 13.25H15.5C14.7835 13.25 14.3062 13.2508 13.9395 13.2807C13.5844 13.3097 13.422 13.361 13.319 13.4135C13.0368 13.5573 12.8073 13.7868 12.6635 14.069C12.6111 14.1719 12.5598 14.3344 12.5308 14.6894C12.5008 15.0562 12.5 15.5334 12.5 16.25V17.2494ZM10.5 16.8394L6.94447 20.4394V18.4895C6.94447 17.1752 5.87507 16.3709 4.85146 16.221C3.64929 16.0449 2.70515 15.1007 2.52906 13.8986C2.50268 13.7185 2.50002 13.486 2.50002 12.8056V7C2.50002 5.9334 2.5008 5.19359 2.54779 4.61844C2.59383 4.05496 2.67919 3.73814 2.79975 3.50153C3.06341 2.98408 3.4841 2.56338 4.00155 2.29973C4.23816 2.17917 4.55498 2.09381 5.11846 2.04777C5.69362 2.00078 6.43342 2 7.50002 2H16.75C17.8166 2 18.5564 2.00078 19.1316 2.04777C19.6951 2.09381 20.0119 2.17917 20.2485 2.29973C20.7659 2.56338 21.1866 2.98408 21.4503 3.50153C21.5709 3.73814 21.6562 4.05496 21.7023 4.61844C21.7492 5.19359 21.75 5.9334 21.75 7V11.25H15.4599C14.794 11.25 14.2345 11.25 13.7766 11.2874C13.2979 11.3265 12.8429 11.4114 12.4111 11.6315C11.7525 11.967 11.2171 12.5025 10.8815 13.161C10.6615 13.5929 10.5765 14.0479 10.5374 14.5266C10.5 14.9845 10.5 15.544 10.5 16.2099V16.8394Z" fill="#505B62"/>
</svg>
