<svg width="16" height="16" viewBox="0 0 16 16" fill="none" xmlns="http://www.w3.org/2000/svg">
<path fill-rule="evenodd" clip-rule="evenodd" d="M12.2 0.5C12.3894 0.5 12.5625 0.607001 12.6472 0.776393L13.0797 1.6413C13.274 2.02998 13.3436 2.16437 13.4314 2.27823C13.5153 2.3871 13.6129 2.48471 13.7218 2.56864C13.8356 2.6564 13.97 2.72599 14.3587 2.92033L15.2236 3.35279C15.393 3.43748 15.5 3.61061 15.5 3.8C15.5 3.98939 15.393 4.16252 15.2236 4.24721L14.3587 4.67967C13.97 4.87401 13.8356 4.9436 13.7218 5.03136C13.6129 5.11529 13.5153 5.2129 13.4314 5.32177C13.3436 5.43563 13.274 5.57002 13.0797 5.9587L12.6472 6.82361C12.5625 6.993 12.3894 7.1 12.2 7.1C12.0106 7.1 11.8375 6.993 11.7528 6.82361L11.3203 5.9587C11.126 5.57002 11.0564 5.43563 10.9686 5.32177C10.8847 5.21289 10.7871 5.11529 10.6782 5.03136C10.5644 4.9436 10.43 4.87401 10.0413 4.67967L9.17639 4.24721C9.007 4.16252 8.9 3.98939 8.9 3.8C8.9 3.61061 9.007 3.43748 9.17639 3.35279L10.0413 2.92033C10.43 2.72599 10.5644 2.6564 10.6782 2.56864C10.7871 2.48471 10.8847 2.38711 10.9686 2.27823C11.0564 2.16437 11.126 2.02998 11.3203 1.6413L11.7528 0.776393C11.8375 0.607001 12.0106 0.5 12.2 0.5ZM7.50478 1.54924C7.57583 1.77392 7.48037 2.01771 7.27564 2.13439C5.81531 2.96674 4.83252 4.53673 4.83252 6.33563C4.83252 9.00428 6.9959 11.1676 9.66456 11.1676C11.4633 11.1676 13.0332 10.185 13.8656 8.72488C13.9823 8.52016 14.2261 8.42472 14.4508 8.49579C14.6755 8.56686 14.82 8.78515 14.7978 9.01974C14.4527 12.6559 11.3913 15.5 7.66505 15.5C3.7079 15.5 0.5 12.2921 0.5 8.33498C0.5 4.60853 3.3444 1.54702 6.98085 1.20223C7.21545 1.17999 7.43373 1.32456 7.50478 1.54924ZM5.07288 2.73965C2.96321 3.71871 1.5 5.85614 1.5 8.33498C1.5 11.7398 4.26018 14.5 7.66505 14.5C10.1437 14.5 12.281 13.037 13.2602 10.9276C12.2697 11.7042 11.0214 12.1676 9.66456 12.1676C6.44362 12.1676 3.83252 9.55657 3.83252 6.33563C3.83252 4.97865 4.29607 3.73017 5.07288 2.73965Z" fill="#505B62"/>
</svg>
