<svg width="16" height="16" viewBox="0 0 16 16" fill="none" xmlns="http://www.w3.org/2000/svg">
<path fill-rule="evenodd" clip-rule="evenodd" d="M7.5 1.51894C4.14378 1.77426 1.5 4.57838 1.5 8C1.5 11.4216 4.14378 14.2257 7.5 14.4811V1.51894ZM8.5 1.51892C8.71253 1.53507 8.92209 1.56143 9.12821 1.59748C9.40022 1.64506 9.6593 1.46311 9.70688 1.1911C9.75446 0.919089 9.57252 0.66001 9.3005 0.612433C8.87777 0.538493 8.44317 0.5 8 0.5C3.85786 0.5 0.5 3.85786 0.5 8C0.5 12.1421 3.85786 15.5 8 15.5C8.44265 15.5 8.87674 15.4616 9.29901 15.3878C9.57104 15.3403 9.75303 15.0813 9.70551 14.8092C9.65798 14.5372 9.39894 14.3552 9.12692 14.4027C8.92122 14.4387 8.71209 14.465 8.5 14.4811V1.51892ZM11.6073 1.97907C11.766 1.75304 12.0778 1.6984 12.3038 1.85704C13.0193 2.35916 13.6429 2.98305 14.1448 3.69872C14.3033 3.92482 14.2485 4.23663 14.0224 4.39517C13.7963 4.55371 13.4845 4.49894 13.326 4.27285C12.8908 3.6522 12.3498 3.11101 11.7294 2.67557C11.5033 2.51693 11.4487 2.2051 11.6073 1.97907ZM14.809 6.29341C15.081 6.24585 15.3401 6.4278 15.3876 6.69982C15.4615 7.12245 15.5 7.55694 15.5 8C15.5 8.44306 15.4615 8.87755 15.3876 9.30018C15.3401 9.5722 15.081 9.75415 14.809 9.70658C14.537 9.65902 14.355 9.39995 14.4026 9.12793C14.4666 8.76193 14.5 8.38507 14.5 8C14.5 7.61493 14.4666 7.23807 14.4026 6.87207C14.355 6.60005 14.537 6.34098 14.809 6.29341ZM14.0198 11.6093C14.2458 11.768 14.3003 12.0798 14.1416 12.3058C13.6401 13.0198 13.0173 13.6424 12.303 14.1435C12.077 14.3021 11.7652 14.2474 11.6066 14.0214C11.448 13.7953 11.5026 13.4835 11.7287 13.3249C12.3481 12.8903 12.8884 12.3503 13.3232 11.7311C13.4819 11.5051 13.7938 11.4505 14.0198 11.6093Z" fill="#FAFAFA"/>
</svg>
