<svg width="15" height="15" viewBox="0 0 15 15" fill="none" xmlns="http://www.w3.org/2000/svg">
<path fill-rule="evenodd" clip-rule="evenodd" d="M10.5006 0.771953C11.5299 -0.257319 13.1987 -0.257317 14.2279 0.771955C15.2572 1.80123 15.2572 3.47001 14.2279 4.49928L12.2297 6.49748C12.2291 6.49808 12.2285 6.49868 12.2279 6.49928C12.2273 6.49989 12.2267 6.50048 12.2261 6.50108L5.42374 13.3035C5.41205 13.3152 5.40042 13.3268 5.38886 13.3384C5.22752 13.5 5.07759 13.6503 4.89907 13.768C4.74236 13.8713 4.57241 13.953 4.39382 14.0108C4.19037 14.0767 3.97941 14.0999 3.7524 14.1249C3.73612 14.1267 3.71977 14.1285 3.70333 14.1303L1.44709 14.381C1.22064 14.4062 0.995038 14.3271 0.833933 14.1659C0.672827 14.0048 0.59369 13.7792 0.61885 13.5528L0.869544 11.2966C0.871371 11.2801 0.873172 11.2638 0.874965 11.2475C0.899967 11.0205 0.923201 10.8095 0.989063 10.6061C1.04688 10.4275 1.12856 10.2575 1.2319 10.1008C1.34963 9.92229 1.49984 9.77236 1.66149 9.61102C1.67308 9.59945 1.68472 9.58783 1.69642 9.57614L10.5006 0.771953ZM9.03094 4.36294L2.75708 10.6368C2.53971 10.8542 2.50707 10.8918 2.48414 10.9266C2.45521 10.9705 2.43234 11.018 2.41615 11.068C2.40332 11.1077 2.39432 11.1567 2.36037 11.4622L2.21321 12.7867L3.53768 12.6395C3.8432 12.6056 3.89221 12.5966 3.93183 12.5837C3.98184 12.5675 4.02943 12.5447 4.0733 12.5157C4.10807 12.4928 4.14572 12.4602 4.36308 12.2428L10.637 5.96895L9.03094 4.36294ZM11.6976 4.90829L10.0916 3.30228L11.5613 1.83261C12.0048 1.38913 12.7238 1.38913 13.1673 1.83262C13.6108 2.2761 13.6108 2.99514 13.1673 3.43862L11.6976 4.90829Z" fill="#5C6870"/>
</svg>
