<svg width="19" height="19" viewBox="0 0 19 19" fill="none" xmlns="http://www.w3.org/2000/svg">
<path fill-rule="evenodd" clip-rule="evenodd" d="M10.3546 0.917196C10.4003 0.505515 10.7711 0.208856 11.1828 0.254591C13.043 0.461241 14.7776 1.29425 16.1018 2.61685C17.4261 3.93944 18.2613 5.67302 18.4703 7.53292C18.5165 7.94455 18.2203 8.31573 17.8087 8.36198C17.3971 8.40823 17.0259 8.11204 16.9797 7.70042C16.8087 6.17868 16.1253 4.7603 15.0418 3.67818C13.9584 2.59605 12.5391 1.9145 11.0172 1.74542C10.6055 1.69969 10.3088 1.32888 10.3546 0.917196ZM4.35039 3.14416C4.09026 3.01258 3.78305 3.01258 3.52292 3.14416C3.41909 3.19667 3.29717 3.30526 2.81262 3.78981L2.68125 3.92118C2.21696 4.38548 2.08163 4.52906 1.97425 4.72022L1.32036 4.3529L1.97425 4.72022C1.85061 4.94031 1.74925 5.33008 1.75 5.58252C1.75067 5.80759 1.78549 5.94592 1.92279 6.42965C2.60624 8.83761 3.89557 11.11 5.79281 13.0072C7.69005 14.9045 9.96242 16.1938 12.3704 16.8772C12.8541 17.0145 12.9924 17.0494 13.2175 17.05C13.4699 17.0508 13.8597 16.9494 14.0798 16.8258C14.271 16.7184 14.4145 16.5831 14.8788 16.1188L15.0102 15.9874C15.4948 15.5029 15.6034 15.3809 15.6559 15.2771C15.7874 15.017 15.7874 14.7098 15.6559 14.4496C15.6034 14.3458 15.4948 14.2239 15.0102 13.7393L15.5405 13.209L15.0102 13.7393L14.8478 13.5769L15.3781 13.0466L14.8478 13.5769C14.5294 13.2585 14.4498 13.1847 14.3858 13.1432C14.082 12.9456 13.6903 12.9456 13.3865 13.1432C13.3226 13.1847 13.2429 13.2585 12.9245 13.5769C12.9182 13.5832 12.9119 13.5896 12.9054 13.5961C12.8299 13.6719 12.74 13.762 12.6323 13.8392C12.2472 14.1149 11.722 14.2044 11.2674 14.0719C11.1407 14.035 11.0365 13.9848 10.9504 13.9433C10.9438 13.9401 10.9374 13.937 10.931 13.934C9.64777 13.3178 8.44579 12.4782 7.3838 11.4162C6.32181 10.3542 5.48218 9.15225 4.86605 7.86898L5.54216 7.54436L4.86605 7.86898C4.863 7.86263 4.85989 7.85618 4.85673 7.84962C4.81524 7.76351 4.76507 7.65937 4.72813 7.53265L5.44816 7.32276L4.72813 7.53265C4.5956 7.07801 4.68516 6.55278 4.96086 6.16775L4.96086 6.16775C5.03802 6.06 5.12814 5.97015 5.20388 5.89465C5.21039 5.88816 5.2168 5.88177 5.22308 5.87549C5.54149 5.55708 5.61529 5.47747 5.65687 5.41352L6.25111 5.79987L5.65687 5.41351C5.85441 5.10969 5.85441 4.71801 5.65687 4.41418C5.61529 4.35023 5.54149 4.27062 5.22308 3.95221L5.06069 3.78981C4.57613 3.30526 4.45421 3.19667 4.35039 3.14416ZM2.8459 1.80563C3.5317 1.45876 4.3416 1.45876 5.02741 1.80563C5.37539 1.98164 5.67881 2.28572 6.04516 2.65285C6.07025 2.678 6.09563 2.70344 6.12135 2.72915L6.28374 2.89155C6.30068 2.90848 6.31743 2.92521 6.33398 2.94174C6.57561 3.18302 6.77508 3.38221 6.91444 3.59655L6.35982 3.95714L6.91444 3.59655C7.43522 4.39754 7.43522 5.43016 6.91444 6.23115C6.77508 6.44549 6.57561 6.64468 6.33397 6.88597C6.31742 6.90249 6.30068 6.91921 6.28374 6.93615C6.23283 6.98706 6.20726 7.01277 6.18888 7.03241C6.18501 7.03654 6.18224 7.03959 6.18036 7.0417C6.17978 7.0429 6.17901 7.04459 6.17812 7.0468C6.17516 7.05417 6.1721 7.06431 6.17007 7.07623C6.16804 7.08814 6.16756 7.09872 6.16791 7.10666C6.16805 7.10966 6.16827 7.11182 6.16845 7.11315C6.16908 7.11471 6.17004 7.11699 6.17144 7.1202C6.17473 7.12776 6.17966 7.13864 6.18771 7.15575C6.19588 7.17312 6.20545 7.19304 6.21827 7.21975C6.76213 8.35251 7.50382 9.41492 8.44446 10.3556C9.3851 11.2962 10.4475 12.0379 11.5803 12.5818L11.2557 13.2579L11.5803 12.5818C11.607 12.5946 11.6269 12.6041 11.6443 12.6123C11.6614 12.6204 11.6723 12.6253 11.6798 12.6286C11.683 12.63 11.6853 12.6309 11.6869 12.6316C11.6882 12.6317 11.6904 12.632 11.6934 12.6321C11.7013 12.6325 11.7119 12.632 11.7238 12.63C11.7357 12.6279 11.7458 12.6249 11.7532 12.6219C11.7554 12.621 11.7571 12.6202 11.7583 12.6197C11.7604 12.6178 11.7635 12.615 11.7676 12.6111C11.7873 12.5928 11.813 12.5672 11.8639 12.5163C11.8808 12.4993 11.8975 12.4826 11.9141 12.466C12.1553 12.2244 12.3545 12.0249 12.5689 11.8856C13.3699 11.3648 14.4025 11.3648 15.2035 11.8856C15.4178 12.0249 15.617 12.2244 15.8583 12.4661C15.8748 12.4826 15.8915 12.4993 15.9085 12.5163L15.4665 12.9582L15.9085 12.5163L16.0709 12.6787C16.0966 12.7044 16.122 12.7298 16.1472 12.7549C16.5143 13.1212 16.8184 13.4246 16.9944 13.7726C17.3413 14.4584 17.3413 15.2683 16.9944 15.9541C16.8184 16.3021 16.5143 16.6055 16.1472 16.9719C16.122 16.997 16.0966 17.0224 16.0709 17.0481L15.9395 17.1794C15.9216 17.1973 15.904 17.215 15.8865 17.2324C15.4955 17.6238 15.2059 17.9137 14.8144 18.1336C14.3687 18.384 13.7243 18.5515 13.213 18.55C12.7648 18.5487 12.4394 18.4562 12.0046 18.3327C11.9901 18.3286 11.9755 18.3244 11.9608 18.3202C9.31311 17.5687 6.81487 16.1506 4.73215 14.0679C2.64942 11.9852 1.23129 9.48692 0.479789 6.83922C0.475607 6.82448 0.471458 6.80988 0.467343 6.7954C0.343812 6.36065 0.251343 6.03523 0.25001 5.58698C0.248489 5.07572 0.416065 4.43133 0.666464 3.98558L0.666465 3.98558C0.886349 3.59415 1.17619 3.30455 1.56761 2.91347C1.58507 2.89603 1.60273 2.87838 1.62059 2.86052L1.75196 2.72915L2.28229 3.25948L1.75196 2.72915C1.77767 2.70344 1.80306 2.678 1.82815 2.65286C2.19449 2.28572 2.49792 1.98164 2.8459 1.80563L3.18441 2.47489L2.8459 1.80563ZM10.3639 4.18972C10.4432 3.78317 10.837 3.5179 11.2436 3.59722C12.2041 3.78461 13.0867 4.25434 13.7787 4.94629C14.4706 5.63824 14.9404 6.52093 15.1278 7.48139C15.2071 7.88793 14.9418 8.28181 14.5353 8.36113C14.1287 8.44044 13.7348 8.17517 13.6555 7.76863C13.5253 7.10119 13.1989 6.48779 12.718 6.00695C12.2372 5.5261 11.6238 5.19968 10.9564 5.06946C10.5498 4.99014 10.2845 4.59627 10.3639 4.18972Z" fill="#40484B"/>
</svg>
