<svg width="14" height="18" viewBox="0 0 14 18" fill="none" xmlns="http://www.w3.org/2000/svg">
<path d="M4.16126 8.492C4.16126 8.492 3.46897 6.36541 4.28426 5.20336C5.09956 4.04132 5.79185 3.89251 6.68152 4.11576C7.5712 4.33901 7.79433 5.50103 7.59551 6.48991C7.39813 7.47879 6.87892 9.23474 6.85461 9.50665C6.83029 9.77855 6.78022 10.5699 7.54689 10.8919C8.31355 11.2139 9.54937 10.8175 10.1916 9.50665C10.8338 8.19577 11.0813 6.43982 10.9826 5.77293C10.8839 5.10462 10.7852 3.44886 8.80701 2.70613C6.82885 1.96339 5.26119 2.69755 4.87786 2.93368C4.30572 3.28573 3.22295 4.08714 2.77954 5.15043C2.50348 5.81303 2.40194 6.57864 2.4706 7.14249C2.54784 7.77789 2.87538 8.44193 3.14715 8.72671C3.41891 9.0115 3.32021 9.30772 3.28302 9.53097C3.24583 9.75422 3.16288 10.3724 2.94976 10.6028C2.73521 10.8333 2.28178 10.8633 2.10013 10.7731C1.91847 10.683 1.06457 10.2365 0.561092 9.36497C0.0361553 8.45337 -0.18698 7.03945 0.183479 5.21053C0.553938 3.38017 2.08583 1.74015 3.71499 0.925865C5.33557 0.115871 7.29229 -0.290566 9.1217 0.237505C10.9511 0.765575 12.5645 1.76732 13.4542 3.69643C14.3439 5.62553 13.9734 8.12278 13.5529 9.28626C13.1324 10.4483 12.3743 11.7763 10.9411 12.5835C9.50789 13.392 8.2549 13.3748 7.84296 13.2761C7.43102 13.1774 6.47556 12.8811 6.04646 12.4017C6.04646 12.4017 5.43713 14.7759 5.18968 15.4185C4.94223 16.061 4.51885 17.1129 4.14696 17.5078C3.7765 17.9028 3.60343 18.0402 3.25729 17.9901C2.91114 17.94 2.71376 17.6309 2.65225 16.7036C2.59075 15.7762 3.04702 13.1101 3.22867 12.3345C3.41175 11.5588 4.07115 8.85549 4.16126 8.492Z" fill="white"/>
</svg>
