<svg width="42" height="42" viewBox="0 0 42 42" fill="none" xmlns="http://www.w3.org/2000/svg">
<path fill-rule="evenodd" clip-rule="evenodd" d="M21 2C10.5066 2 2 10.5066 2 21C2 31.4934 10.5066 40 21 40C31.4934 40 40 31.4934 40 21C40 10.5066 31.4934 2 21 2ZM0 21C0 9.40202 9.40202 0 21 0C32.598 0 42 9.40202 42 21C42 32.598 32.598 42 21 42C9.40202 42 0 32.598 0 21ZM18.9698 12.7204L28.4813 18.8349C28.8003 19.0399 29.0946 19.2291 29.3203 19.4051C29.5544 19.5876 29.8331 19.8431 29.993 20.2216C30.2033 20.7192 30.2033 21.2808 29.993 21.7784C29.8331 22.1569 29.5544 22.4124 29.3203 22.5949C29.0946 22.7709 28.8003 22.9601 28.4813 23.1651L18.9698 29.2797C18.5994 29.5178 18.2655 29.7325 17.9821 29.88C17.6973 30.0283 17.3085 30.1955 16.8575 30.1633C16.2788 30.1219 15.7466 29.8314 15.399 29.367C15.128 29.005 15.0584 28.5876 15.0291 28.2678C14.9999 27.9497 15 27.5526 15 27.1123V14.8877C15 14.4474 14.9999 14.0503 15.0291 13.7322C15.0584 13.4124 15.128 12.995 15.399 12.633C15.7467 12.1686 16.2789 11.8781 16.8575 11.8367C17.3085 11.8045 17.6972 11.9717 17.9821 12.12C18.2655 12.2675 18.5995 12.4822 18.9698 12.7204ZM17.0246 13.8767C17.0233 13.8884 17.022 13.9011 17.0208 13.9148C17.001 14.1302 17 14.4335 17 14.9307V27.0693C17 27.5665 17.001 27.8698 17.0208 28.0852C17.022 28.0989 17.0233 28.1116 17.0246 28.1233C17.0352 28.118 17.0465 28.1123 17.0587 28.1059C17.2506 28.0061 17.5063 27.8429 17.9245 27.574L27.3656 21.5047C27.7303 21.2703 27.9456 21.1307 28.0903 21.0178C28.0984 21.0115 28.1059 21.0056 28.1128 21C28.1059 20.9944 28.0984 20.9885 28.0903 20.9822C27.9456 20.8693 27.7303 20.7297 27.3656 20.4953L17.9245 14.426C17.5063 14.1571 17.2506 13.9939 17.0587 13.8941C17.0465 13.8877 17.0352 13.882 17.0246 13.8767Z" fill="#FAFAFA"/>
</svg>
