<svg width="11" height="14" viewBox="0 0 11 14" fill="none" xmlns="http://www.w3.org/2000/svg">
<path fill-rule="evenodd" clip-rule="evenodd" d="M2.97738 0.883605C2.986 0.88956 2.99463 0.895531 3.0033 0.901517L9.69287 5.5244C9.88416 5.65656 10.0675 5.78325 10.2094 5.90187C10.3596 6.02743 10.5428 6.20666 10.648 6.46969C10.784 6.80968 10.784 7.19031 10.648 7.5303C10.5428 7.79332 10.3596 7.97256 10.2094 8.09811C10.0676 8.21673 9.88418 8.34341 9.6929 8.47556L2.97737 13.1164C2.74366 13.2779 2.52691 13.4277 2.34141 13.532C2.15699 13.6356 1.88055 13.7683 1.54982 13.7479C1.13605 13.7223 0.762423 13.5106 0.52254 13.1819C0.333148 12.9224 0.287845 12.6263 0.268961 12.4126C0.249958 12.1976 0.249979 11.9299 0.250002 11.6371L0.250003 2.39333C0.250003 2.38314 0.250002 2.37298 0.250002 2.36285C0.249979 2.07004 0.249958 1.80236 0.268961 1.58737C0.287845 1.37373 0.333148 1.07758 0.52254 0.81806C0.762423 0.489356 1.13605 0.277717 1.54982 0.252108C1.88055 0.231638 2.15699 0.364435 2.34141 0.468035C2.52691 0.572241 2.74366 0.72206 2.97738 0.883605ZM1.75473 1.86654C1.75034 1.9942 1.75 2.16145 1.75 2.39333V11.6067C1.75 11.8385 1.75034 12.0058 1.75473 12.1334C1.85395 12.069 1.98 11.9823 2.15052 11.8645L8.81662 7.2578C8.98718 7.13993 9.10026 7.06126 9.18087 6.99999C9.10026 6.93873 8.98718 6.86005 8.81662 6.74219L2.15052 2.13553C1.98 2.01768 1.85395 1.93096 1.75473 1.86654Z" fill="#FAFAFA"/>
</svg>
