<svg width="70" height="56" viewBox="0 0 70 56" fill="none" xmlns="http://www.w3.org/2000/svg">
<g opacity="0.4" clip-path="url(#clip0_298_1193)">
<path d="M70.0007 40.3661C69.9034 48.8919 62.9862 55.8666 54.4865 55.9979C48.1192 56.0954 42.6035 52.4079 40.0251 47.0279C39.6328 46.2103 39.3109 45.3557 39.0628 44.4675C33.1783 25.4374 54.9961 5.98009 61.6954 0.553026C62.7381 -0.291483 64.2637 -0.153535 65.1422 0.862567C65.9335 1.77437 65.9603 3.1202 65.2093 4.06564C57.8528 13.3216 55.318 19.8287 55.3582 24.4079C63.5998 24.9866 70.0946 31.9243 70.0007 40.3661Z" fill="#0F90E6"/>
<path d="M31.9333 40.3661C31.8395 48.8919 24.9189 55.8666 16.4225 55.9979C10.0552 56.0954 4.53621 52.4079 1.95777 47.0279C1.56883 46.2103 1.24359 45.3557 0.99547 44.4675C-4.88564 25.4374 16.9288 5.98009 23.628 0.553026C24.6742 -0.291483 26.1964 -0.153535 27.0782 0.862567C27.8662 1.77437 27.893 3.1202 27.1453 4.06564C19.7889 13.3216 17.254 19.8287 17.2943 24.4079C25.5359 24.9866 32.0272 31.9243 31.9333 40.3661Z" fill="#0F90E6"/>
</g>
<defs>
<clipPath id="clip0_298_1193">
<rect width="70" height="56" fill="white"/>
</clipPath>
</defs>
</svg>
