<svg width="26" height="27" viewBox="0 0 26 27" fill="none" xmlns="http://www.w3.org/2000/svg">
<path fill-rule="evenodd" clip-rule="evenodd" d="M20.5 2C18.9812 2 17.75 3.23122 17.75 4.75C17.75 5.23145 17.8737 5.68401 18.0911 6.07761C18.1033 6.09572 18.115 6.11434 18.1262 6.13347C18.1373 6.15245 18.1476 6.17164 18.1573 6.19101C18.6415 6.97645 19.5096 7.5 20.5 7.5C22.0188 7.5 23.25 6.26878 23.25 4.75C23.25 3.23122 22.0188 2 20.5 2ZM16.9923 7.95299C17.8609 8.90365 19.1108 9.5 20.5 9.5C23.1234 9.5 25.25 7.37335 25.25 4.75C25.25 2.12665 23.1234 0 20.5 0C17.8766 0 15.75 2.12665 15.75 4.75C15.75 5.26525 15.832 5.76134 15.9838 6.22591L9.00766 10.297C8.13908 9.34635 6.88918 8.75 5.5 8.75C2.87665 8.75 0.75 10.8766 0.75 13.5C0.75 16.1234 2.87665 18.25 5.5 18.25C6.88939 18.25 8.13946 17.6535 9.00805 16.7026L15.9856 20.7685C15.8327 21.2347 15.75 21.7327 15.75 22.25C15.75 24.8734 17.8766 27 20.5 27C23.1234 27 25.25 24.8734 25.25 22.25C25.25 19.6266 23.1234 17.5 20.5 17.5C19.1129 17.5 17.8647 18.0945 16.9963 19.0427L10.0164 14.9754C10.168 14.5109 10.25 14.015 10.25 13.5C10.25 12.9848 10.168 12.4887 10.0162 12.0241L16.9923 7.95299ZM7.84267 12.059C7.85236 12.0784 7.86274 12.0976 7.87381 12.1165C7.88498 12.1357 7.89668 12.1543 7.90889 12.1724C8.12628 12.566 8.25 13.0185 8.25 13.5C8.25 13.9815 8.12628 14.434 7.90889 14.8276C7.89657 14.8459 7.88475 14.8647 7.87349 14.884C7.86254 14.9028 7.85228 14.9218 7.84268 14.941C7.35852 15.7264 6.4904 16.25 5.5 16.25C3.98122 16.25 2.75 15.0188 2.75 13.5C2.75 11.9812 3.98122 10.75 5.5 10.75C6.49039 10.75 7.3585 11.2736 7.84267 12.059ZM18.0572 20.9857C18.0869 20.9484 18.1143 20.9084 18.139 20.866C18.1628 20.8251 18.1835 20.7832 18.2009 20.7406C18.6925 19.9933 19.5387 19.5 20.5 19.5C22.0188 19.5 23.25 20.7312 23.25 22.25C23.25 23.7688 22.0188 25 20.5 25C18.9812 25 17.75 23.7688 17.75 22.25C17.75 21.7942 17.8609 21.3642 18.0572 20.9857Z" fill="#0F90E6"/>
</svg>
