<svg width="10" height="10" viewBox="0 0 10 10" fill="none" xmlns="http://www.w3.org/2000/svg">
<path fill-rule="evenodd" clip-rule="evenodd" d="M5.0001 0.600098C5.22101 0.600098 5.4001 0.779184 5.4001 1.0001V4.03441L7.71726 1.71725C7.87346 1.56105 8.12673 1.56105 8.28294 1.71725C8.43915 1.87346 8.43915 2.12673 8.28294 2.28294L5.96578 4.6001H9.0001C9.22101 4.6001 9.4001 4.77918 9.4001 5.0001C9.4001 5.22101 9.22101 5.4001 9.0001 5.4001H5.96578L8.28294 7.71726C8.43915 7.87346 8.43915 8.12673 8.28294 8.28294C8.12673 8.43915 7.87346 8.43915 7.71726 8.28294L5.4001 5.96578V9.0001C5.4001 9.22101 5.22101 9.4001 5.0001 9.4001C4.77918 9.4001 4.6001 9.22101 4.6001 9.0001V5.96578L2.28294 8.28294C2.12673 8.43915 1.87346 8.43915 1.71725 8.28294C1.56105 8.12673 1.56105 7.87346 1.71725 7.71726L4.03441 5.4001H1.0001C0.779184 5.4001 0.600098 5.22101 0.600098 5.0001C0.600098 4.77918 0.779184 4.6001 1.0001 4.6001H4.03441L1.71725 2.28294C1.56105 2.12673 1.56105 1.87346 1.71725 1.71725C1.87346 1.56105 2.12673 1.56105 2.28294 1.71725L4.6001 4.03441V1.0001C4.6001 0.779184 4.77918 0.600098 5.0001 0.600098Z" fill="#0F90E6"/>
</svg>
