<svg width="16" height="14" viewBox="0 0 16 14" fill="none" xmlns="http://www.w3.org/2000/svg">
<path d="M2.14623 1.82758L0 3.78969L0.742615 4.73278C1.07333 4.52543 1.73475 3.98455 2.02971 3.98455C2.69113 3.98455 3.28572 5.79205 3.85308 7.77978C4.36256 9.56471 4.88991 14 7.32108 14C10.1187 14 16 6.38249 16 2.99218C16 1.76543 15.7587 0 13.3364 0C10.7408 0 9.4638 2.52646 9.14975 3.78969C9.37567 3.63778 9.99067 3.53651 10.3296 3.53651C11.7102 3.53651 11.4153 4.97983 11.227 5.56214C11.0388 6.14444 9.59136 8.97978 8.81087 8.97978C7.85699 8.97978 7.29219 4.80238 7.01607 2.99218C6.73994 1.18197 6.02453 0.194593 4.93258 0.194593C4.05903 0.194593 2.71103 1.28325 2.14623 1.82758Z" fill="#FAFAFA"/>
</svg>
